<?xml version="1.0" encoding="UTF-8" standalone="no"?>
<svg width="200px" height="200px" viewBox="0 0 200 200" version="1.1" xmlns="http://www.w3.org/2000/svg" xmlns:xlink="http://www.w3.org/1999/xlink">
    <g stroke="none" stroke-width="1" fill="none" fill-rule="evenodd">
        <!-- Shield Background -->
        <path d="M100,20 C100,20 40,40 20,50 C20,100 20,150 100,180 C180,150 180,100 180,50 C160,40 100,20 100,20 Z" fill="#2563EB" />
        
        <!-- Inner Shield -->
        <path d="M100,35 C100,35 50,50 35,60 C35,100 35,140 100,165 C165,140 165,100 165,60 C150,50 100,35 100,35 Z" fill="#FFFFFF" />
        
        <!-- Lock Symbol -->
        <rect x="80" y="80" width="40" height="40" rx="5" fill="#2563EB" />
        <rect x="85" y="60" width="30" height="25" rx="5" fill="#2563EB" />
        <circle cx="100" cy="100" r="10" fill="#FFFFFF" />
        <rect x="98" y="93" width="4" height="14" rx="2" fill="#2563EB" />
        
        <!-- Text at the bottom -->
        <text x="100" y="190" font-family="Arial, sans-serif" font-size="14" font-weight="bold" fill="#2563EB" text-anchor="middle">ANTİVİRÜS</text>
    </g>
</svg>